<?xml version="1.0" encoding="utf-8"?>
<!-- Generator: Adobe Illustrator 27.5.0, SVG Export Plug-In . SVG Version: 6.00 Build 0)  -->
<svg version="1.1" id="Capa_1" xmlns="http://www.w3.org/2000/svg" xmlns:xlink="http://www.w3.org/1999/xlink" x="0px" y="0px"
	 viewBox="0 0 1817 2478" style="enable-background:new 0 0 1817 2478;" xml:space="preserve">
<path style="fill:#EBF2E5;" d="M1063.934,1882.668c-15.918,10.402-21.574,23.078-26.316,39.496
	c-0.832,2.898-1.645,5.914-2.477,9.047c-11.219,42.301-14.059,86.762-8.809,130.184c3.359,27.684,10.004,54.984,19.902,81.063
	c7.84,20.66,13.313,44.508,33.984,43.02c4.492-6.141,8.613-11.211,11.063-13.359c12.281-10.789,27.18-18.66,43.168-22.199
	c23.324-5.148,41.219-1.34,60.125,12.43c2.199,1.609,4.34,3.305,6.434,5.047c1.422-10.703,1.137-21.785,0.621-30.91
	c-3.254-57.578-13.813-114.715-31.156-169.699c-5.695-18.051-24.172-81.406-40.207-111.453c-3.816,2.695-8.082,4.887-12.766,6.383
	C1099.367,1867.508,1080.063,1872.133,1063.934,1882.668z"/>
<path style="fill:#EBF2E5;" d="M604.988,2148.152c14.148-3.582,29.434-2.816,42.938,2.762c10.141,4.184,19.227,10.809,29.688,14.125
	c36.313,11.516,63.019-15.754,63.309-49.172c0.383-44.48,0.785-88.965,1.18-133.445c0.16-17.793,1.051-37.777-1.129-55.359
	c-1.402-11.309-5.984-22.652-14.727-29.957c-9.063-7.578-20.949-9.777-32.617-12.582c-4.367-1.047-8.699-2.18-12.84-3.707
	c-11.602-4.281-22.242-12.273-27.543-23.449c-4.313-9.102-4.731-17.527-2.395-25.227c-7.07,2-13.52,4.691-18.977,8.27
	c-17.328,11.371-44.188,103.926-51.266,126.375c-17.344,54.984-27.906,112.121-31.156,169.699
	c-0.516,9.125-0.805,20.207,0.617,30.914c2.098-1.746,4.234-3.441,6.441-5.051C572.133,2150.969,587.109,2146.492,604.988,2148.152z
	"/>
<path style="fill:#C6CAD6;" d="M1043.016,1870.461c-2.531,1.082-5.094,2.082-7.637,3.016c-14.434,5.289-30.023,10.418-39.488,22.527
	c-12.894,16.5-16.461,45.566-21.25,65.527c-0.707,2.953-1.383,5.898-2.031,8.863c-5.461,25.09-8.676,50.676-9.648,76.332
	c-2.23,58.723,8.926,116.609,26.578,172.406c22.559,4.258,47.734,5.605,69.516,5.512c-0.223-0.082-0.395-0.168-0.496-0.254
	c-0.523-0.414-0.434-1.566,0.074-3.199c2.047-6.582,11.41-21.566,19.965-33.492c0.543-0.762,1.078-1.488,1.621-2.223
	c-20.672,1.488-26.145-22.359-33.984-43.02c-9.898-26.078-16.543-53.379-19.902-81.063c-5.25-43.422-2.41-87.883,8.809-130.184
	c0.832-3.133,1.645-6.148,2.477-9.047c4.742-16.418,10.398-29.094,26.316-39.496c16.129-10.535,35.434-15.16,53.566-20.953
	c4.684-1.496,8.949-3.688,12.766-6.383c-3.902-7.32-7.664-12.691-11.059-14.922c-7.578-4.973-17.039-8.258-27.473-10.289
	c-0.285,12.434-1.457,21.52-3.836,24.684C1080.008,1865.293,1059.805,1869.016,1043.016,1870.461z"/>
<path style="fill:#A1A8C3;" d="M962.961,2046.727c0.973-25.656,4.188-51.242,9.648-76.332c0.648-2.965,1.324-5.91,2.031-8.863
	c4.789-19.961,8.356-49.027,21.25-65.527c9.465-12.109,25.055-17.238,39.488-22.527c2.543-0.934,5.105-1.934,7.637-3.016
	c-2.84,0.242-5.57,0.434-8.137,0.563c-3.289,0.172-6.328,0.285-8.883,0.359c-2.656,0.074-5.434,0.098-8.25,0.051
	c-9.914-0.152-20.457-1.254-29.242-4.898c-3.738-9.336-7.309-18.043-10.797-26.445c-2.457,0.906-4.223,1.715-5.074,2.355
	c-31.93,24.141-50.086,197.684-52.695,235.402c-2.188,31.555-2.527,75.336,8.008,105.766c6.664,19.227,31.84,29.91,61.594,35.52
	C971.887,2163.336,960.73,2105.449,962.961,2046.727z"/>
<path style="fill:#C6CAD6;" d="M768.527,1946.176c-7.645-28.273-23.433-57.383-50.984-67.305c-9.223-3.324-19.121-4.23-28.629-6.602
	c-6.352-1.582-12.043-4.41-16.859-8.117c-5.805-2.293-10.715-5.309-13.758-9.348c-2.309-3.074-3.484-11.738-3.813-23.637
	c-1.23,0.305-2.434,0.641-3.633,0.973c-2.336,7.699-1.918,16.125,2.395,25.227c5.301,11.176,15.941,19.168,27.543,23.449
	c4.141,1.527,8.473,2.66,12.84,3.707c11.668,2.805,23.555,5.004,32.617,12.582c8.742,7.305,13.324,18.648,14.727,29.957
	c2.18,17.582,1.289,37.566,1.129,55.359c-0.395,44.48-0.797,88.965-1.18,133.445c-0.289,33.418-26.996,60.688-63.309,49.172
	c-10.461-3.316-19.547-9.941-29.688-14.125c-13.504-5.578-28.789-6.344-42.938-2.762c3.758,0.348,7.594,0.871,11.641,1.766
	c12.996,2.871,25.246,8.652,35.977,16.492c2.477,1.809,4.895,3.688,7.191,5.707c8.469,7.434,36.617,49.184,32.727,52.273
	c-0.105,0.086-0.273,0.172-0.492,0.254c47.914,0.207,112.324-6.512,128.808-36.051
	C805.633,2107.047,790.168,2026.168,768.527,1946.176z"/>
<path style="fill:#A1A8C3;" d="M745.965,1869.848c-7.465,1.375-15.34,1.688-22.637,1.586c-1.051-0.012-2.105-0.023-3.129-0.051
	c-11.789-0.344-33.074-1.281-48.144-7.23c4.816,3.707,10.508,6.535,16.859,8.117c9.508,2.371,19.406,3.277,28.629,6.602
	c27.551,9.922,43.34,39.031,50.984,67.305c21.641,79.992,37.105,160.871,52.313,242.418c0.891-1.602,1.691-3.242,2.293-4.98
	c10.535-30.43,10.195-74.211,8.012-105.766c-2.609-37.719-20.766-211.262-52.695-235.402c-1.285-0.965-4.59-2.309-9.367-3.789
	c-3.668,8.824-7.441,18.012-11.391,27.879C754.035,1868.047,750.059,1869.094,745.965,1869.848z"/>
<path style="fill:#A1A8C3;" d="M1066.301,1189.766c-4.613,13.336-8.094,27.145-10.691,40.992
	c-3.844,20.547-5.637,41.762-5.563,63.063c0.148,35.531,5.496,71.316,15.215,104.707v0.004c5.559-25.18,7.922-55.34,17.918-79.184
	c9.297-22.16,20.461-44.844,33.633-65.125c2.734-4.207,5.645-8.285,8.617-12.316l-10.148-8.609
	C1098.805,1218.961,1082.492,1204.43,1066.301,1189.766z"/>
<path style="fill:#A1A8C3;" d="M1155.008,1096.906c-5.063,1.563-10.141,3.574-15.145,5.914c0.293,0.148,0.574,0.305,0.859,0.445
	c0.23,0.113,0.449,0.238,0.68,0.352c1.586,0.777,3.594,1.844,5.965,3.172c9.219,5.133,24.016,14.141,41.453,25.152
	c1.445-11.539,1.516-23.324,0.293-35.051c-0.219-2.082-0.707-4.309-1.152-6.355l-0.004-0.035l-0.008-0.004
	c-0.004-0.004-0.02-0.004-0.031-0.004c0.012,0.043,0.027,0.09,0.031,0.133C1181.859,1088.879,1158.926,1095.691,1155.008,1096.906z"
	/>
<path style="fill:#A1A8C3;" d="M693.355,1230.758c-3.57-19.074-8.738-38.094-16.5-55.824c-10.91,17.063-21.941,34.047-33.152,50.906
	c-5.082,7.645-10.188,15.273-15.328,22.879c1.266,1.832,2.563,3.637,3.777,5.504c13.176,20.281,24.336,42.965,33.633,65.125
	c9.996,23.844,12.363,54.004,17.926,79.184v-0.004c9.715-33.391,15.066-69.176,15.207-104.707
	C699,1272.52,697.203,1251.305,693.355,1230.758z"/>
<path style="fill:#A1A8C3;" d="M578.238,1113.355c1.766-1.75,3.254-3.172,4.574-4.391c0.461-0.43,0.973-0.914,1.379-1.27
	c3.754-3.324,7.359-6.824,10.918-10.387c-0.383-0.121-0.766-0.285-1.152-0.402c-3.914-1.215-26.844-8.027-32.941-6.281
	c0.008-0.043,0.027-0.09,0.035-0.133c-0.012,0-0.027,0-0.035,0.004l-0.004,0.004l-0.008,0.035c-0.441,2.047-0.93,4.273-1.145,6.355
	c-1.234,11.797-1.16,23.652,0.316,35.258C567.367,1124.449,573.547,1118.012,578.238,1113.355z"/>
<path style="fill:#EBF2E5;" d="M282.254,1592.711c15.969,5.41,34.387,7.531,49.059-0.77c8.59-4.863,14.949-12.77,21.063-20.531
	c-6.41-2.121-12.676-4.688-18.602-7.942c-20.035-11.012-36.461-28.281-46.863-48.605c-1.496-2.918-3.414-6.527-5.227-10.348
	c-0.527,0.785-1.035,1.57-1.566,2.355c-3.98,5.836-7.527,11.969-10.719,18.266c-6.438,12.707-11.457,26.074-15.961,39.57
	c-0.836,2.516-1.637,5.043-2.445,7.563c1.59,2.195,3.375,4.25,5.34,6.086C263.594,1585.16,272.828,1589.512,282.254,1592.711z"/>
<path style="fill:#C6CAD6;" d="M331.313,1591.941c-14.672,8.301-33.09,6.18-49.059,0.77c-9.426-3.199-18.66-7.551-25.922-14.355
	c-1.965-1.836-3.75-3.891-5.34-6.086c-0.449,1.41-0.918,2.809-1.367,4.223c-0.477,1.516-0.777,2.887-0.992,4.231
	c0.297-0.102,0.57-0.266,0.883-0.328l0.332-0.059c7.375-1.063,17.164,13.301,16.641,19.832c-0.074,0.969-0.332,1.914-0.813,2.828
	c-1.082,2.043-2.777,4.109-4.672,6.145c0.551,0.621,1.113,1.234,1.688,1.84c1.406-2.418,3.105-4.73,5.699-5.598
	c7.43-2.477,20.227,10.523,20.906,17.375c0.109,1,0.02,2.023-0.305,3.066c-0.309,0.973-0.758,1.98-1.258,2.996
	c1.355,0.684,2.715,1.359,4.094,1.957c0.105-0.219,0.207-0.441,0.313-0.66c1.313-2.742,2.723-5.547,5.051-7.484
	c4.305-3.609,10.82-3.34,15.879-0.844l0.672,0.359c3.934,2.148,7.07,5.426,9.961,8.902c0.785,0.941,1.246,2.07,1.398,3.238
	c0.371-0.086,0.727-0.098,1.102-0.188c3.145-0.797,6.184-1.891,9.152-3.141c-0.023-0.238-0.043-0.477-0.066-0.711
	c-0.684-7.391-1.34-15.031,0.887-22.121c3.184-10.133,11.691-17.539,19.82-24.383c3.703-3.125,7.891-6.426,12.734-6.281
	c4.711,0.129,6.84,4.313,7.551,9.945c0.297,2.313,0.344,4.887,0.242,7.519c4.063-5.711,7.852-11.625,11.5-17.609
	c-12.109-0.113-24.164-2.098-35.648-5.91C346.262,1579.172,339.902,1587.078,331.313,1591.941z"/>
<path style="fill:#A1A8C3;" d="M383.906,1567.559c-1.004-0.102-2-0.285-3-0.434c-9.762-1.473-19.375-5.035-28.273-9.637
	c-1.422-0.734-2.855-1.449-4.238-2.23c-7.477-4.238-14.594-9.098-21.273-14.496c-7.035-4.938-13.672-10.434-19.801-16.465
	c-8.164-8.023-15.52-17.461-20.285-27.797c-1.77,2.672-3.559,5.34-5.352,8.016c1.813,3.82,3.73,7.43,5.227,10.348
	c10.402,20.324,26.828,37.594,46.863,48.605c5.926,3.254,12.191,5.82,18.602,7.942c11.484,3.813,23.539,5.797,35.648,5.91
	c0.406-0.672,0.832-1.332,1.234-2c1.574-2.609,3.301-5.133,5.023-7.66C390.832,1567.91,387.367,1567.918,383.906,1567.559z"/>
<path style="fill:#203A73;" d="M376.281,1587.41c-2.949,1.945-6.406,3.469-8.879,5.625c-5.633,4.894-9.648,11.641-11.359,18.894
	c-3.074,13.035,0.09,26.734,4.621,39.344c2.398,6.699,5.203,13.301,7.695,19.973c0.629-1.309,1.07-2.707,1.316-4.125
	c1.887-10.66-1.234-21.961,0.316-32.723c0.875-6.066,2.211-12.16,3.484-18.16c0.816-3.848,2.723-12.91,3.047-21.309
	C376.625,1592.297,376.578,1589.723,376.281,1587.41z"/>
<path style="fill:#203A73;" d="M298.797,1659.953c1.742-4.938,4.602-9.637,2.871-14.82c-1.336-4.004-3.762-7.578-7.191-10.082
	c-1.133-0.824-2.395-1.586-3.5-2.457c-6.141,13.227-11.242,26.934-15.238,40.969c-1.703,5.992-5.055,13.113-1.859,19.094
	c2.199,4.117,7.492,6.859,11.898,5.813C290.313,1685.766,294.27,1672.73,298.797,1659.953z"/>
<path style="fill:#203A73;" d="M271.602,1639.527c1.113-6.359,1.27-13.691-3.148-18.402c-1.488-1.578-3.375-2.715-5.039-4.113
	c-1.094-0.922-1.941-1.82-2.566-2.711c-6.406,11.852-12.805,23.703-19.211,35.547c-3.59,6.648-12.262,21.973-1.809,27.101
	c7.086,3.477,16.59-4.238,22.516-10.57C266.805,1657.984,269.953,1648.895,271.602,1639.527z"/>
<path style="fill:#203A73;" d="M250.953,1594.844c0.613-2.816,0.836-5.797,0.375-8.66c-0.277-1.684-1.688-3.934-1.813-5.789
	c-0.313,0.063-0.586,0.227-0.883,0.328c-2.5,0.871-4.453,3.051-6.148,5.168c-8.426,10.523-16.852,21.043-25.281,31.574
	c-4.5,5.617-15.23,18.504-6.309,25.09c1.273,0.941,2.727,1.43,4.297,1.57c5.008-6.598,11.043-12.504,16.742-18.563
	C240.293,1616.68,248.344,1606.758,250.953,1594.844z"/>
<path style="fill:#EBF2E5;" d="M474.473,1395.672c-7-8.16-14.746-15.656-21.633-23.953c-3.914-4.703-7.664-9.582-11.215-14.594
	c-18.68-17.641-33.074-42.316-30.332-66.086c0.852-7.414,3.457-14.727,8.031-21.719c-7.309,6.43-13.492,14.621-19.574,22.859
	c-31.195,42.234-118.051,160.617-118.199,180.77c-0.063,8.234,2.063,16.117,5.484,23.551c4.766,10.336,12.121,19.773,20.285,27.797
	c6.129,6.031,12.766,11.527,19.801,16.465c6.68,5.399,13.797,10.258,21.273,14.496c1.383,0.781,2.816,1.496,4.238,2.23
	c3.508-3.387,9.277-6.02,12.301-8.641c5.758-4.992,10.793-10.762,15.734-16.535c31.563-36.852,63.172-73.75,91.691-113.043
	C479.285,1409.73,482.641,1405.199,474.473,1395.672z"/>
<path style="fill:#C6CAD6;" d="M526.34,1401.418c-2.308-0.48-3.992-1.445-6.195-0.09c-1.789,1.102-3.512,4.789-4.781,6.5
	c-13.891,18.816-28.148,37.363-42.715,55.664c-28.395,35.68-58.004,70.387-88.742,104.066c3.461,0.359,6.926,0.352,10.375,0.102
	c3.555-0.262,7.098-0.758,10.578-1.785c19.332-5.695,109.199-121.809,141.199-163.434c0.945-1.23,1.883-2.457,2.816-3.691
	c-3.551,1.711-7.336,2.91-11.297,3.316C533.828,1402.445,530.023,1402.176,526.34,1401.418z"/>
<path style="fill:#C6CAD6;" d="M542.402,1385.477c-23.906,8.18-53.301,0.902-75.012-9.957c-8.703-4.348-17.637-10.715-25.766-18.395
	c3.551,5.012,7.301,9.891,11.215,14.594c6.887,8.297,14.633,15.793,21.633,23.953c8.168,9.527,4.813,14.059-2.113,23.598
	c-28.52,39.293-60.129,76.191-91.691,113.043c-4.941,5.773-9.977,11.543-15.734,16.535c-3.023,2.621-8.793,5.254-12.301,8.641
	c8.898,4.602,18.512,8.164,28.273,9.637c49.227-53.836,95.641-110.309,138.668-169.223c0.32-0.434,0.844-0.758,1.41-0.57
	c13.273,4.336,23.75,1.57,32.445-4.766c6.777-9.539,12.398-19.465,13.91-30.559C562.863,1373.324,553.988,1381.516,542.402,1385.477
	z"/>
<path style="fill:#A1A8C3;" d="M535.316,1371.457c-2.523,1.898-5.211,4.914-8.586,5.219c-15.539,1.387-32.496-4.734-48.012-14.164
	c-5.734-3.484-11.266-7.398-16.453-11.594c-10.973-8.871-20.414-18.848-26.91-28.008c-5.719-8.066-10.648-17.285-10.695-27.172
	c-0.02-3.809,10.523-18.48,26.242-38.102c-2.184-0.461-4.113-0.648-5.688-0.469c-10.391,1.207-18.688,5.828-25.891,12.152
	c-4.574,6.992-7.18,14.305-8.031,21.719c-2.742,23.77,11.652,48.445,30.332,66.086c8.129,7.68,17.063,14.047,25.766,18.395
	c21.711,10.859,51.105,18.137,75.012,9.957c11.586-3.961,20.461-12.152,24.938-23.469c0.563-4.137,0.586-8.422-0.156-12.922
	c-0.375-2.281-1.672-5.051-3.68-8.156C555.043,1352.434,545.871,1363.52,535.316,1371.457z"/>
<path style="fill:#1F2A50;" d="M520.984,1397.332c-0.566-0.188-1.09,0.137-1.41,0.57c-43.027,58.914-89.441,115.387-138.668,169.223
	c1,0.148,1.996,0.332,3,0.434c30.738-33.68,60.348-68.387,88.742-104.066c14.566-18.301,28.824-36.848,42.715-55.664
	c1.27-1.711,2.992-5.398,4.781-6.5c2.203-1.355,3.887-0.391,6.195,0.09c3.684,0.758,7.488,1.027,11.238,0.648
	c3.961-0.406,7.746-1.605,11.297-3.316c1.555-2.051,3.078-4.109,4.555-6.184C544.734,1398.902,534.258,1401.668,520.984,1397.332z"
	/>
<path style="fill:#203A73;" d="M435.355,1322.91c6.496,9.16,15.938,19.137,26.91,28.008c1.691-1.723,3.852-3.418,6.629-5.082
	c15.496-9.281,31.066-18.063,45.77-28.633c28.48-20.48,54.309-44.984,74.234-73.98c14.258-20.742,29.918-45.141,29.848-71.418
	c-0.047-19.578-27-41.727-38.816-56.309c-0.566-0.703-1.129-1.422-1.691-2.141c-4.691,4.656-10.871,11.094-18.063,18.793
	c-30.563,32.715-79.324,88.098-109.273,125.488c-15.719,19.621-26.262,34.293-26.242,38.102
	C424.707,1305.625,429.637,1314.844,435.355,1322.91z"/>
<path style="fill:#20325F;" d="M578.238,1113.355c0.563,0.719,1.125,1.438,1.691,2.141c11.816,14.582,38.769,36.73,38.816,56.309
	c0.07,26.277-15.59,50.676-29.848,71.418c-19.926,28.996-45.754,53.5-74.234,73.98c-14.703,10.57-30.273,19.352-45.77,28.633
	c-2.777,1.664-4.938,3.359-6.629,5.082c5.188,4.195,10.719,8.109,16.453,11.594c40.777-12.641,75.359-41.68,102.688-74.363
	c15.066-18.02,24.074-37.066,36.336-56.398c10.199-16.074,32.262-51.348,22.293-71.441c-5.438-10.953-25.008-22.516-34.219-30.754
	c-7.668-6.867-15.336-13.727-23.004-20.59C581.492,1110.184,580.004,1111.605,578.238,1113.355z"/>
<path style="fill:#1F2A50;" d="M676.855,1174.934c-0.801-1.84-1.492-3.73-2.355-5.539c-6.094-12.734-13.883-24.941-23.266-35.52
	c-0.574-0.648-1.223-1.262-1.816-1.902c-14.332-15.406-34.356-28.25-54.309-34.664c-3.559,3.563-7.164,7.063-10.918,10.387
	c-0.406,0.355-0.918,0.84-1.379,1.27c7.668,6.863,15.336,13.723,23.004,20.59c9.211,8.238,28.781,19.801,34.219,30.754
	c9.969,20.094-12.094,55.367-22.293,71.441c-12.262,19.332-21.27,38.379-36.336,56.398c-27.328,32.684-61.91,61.723-102.688,74.363
	c15.516,9.43,32.473,15.551,48.012,14.164c3.375-0.305,6.063-3.32,8.586-5.219c10.555-7.938,19.727-19.023,28.188-30.527
	c6.715-9.129,12.992-18.508,19.086-26.832c15.723-21.461,30.898-43.324,45.785-65.379c5.141-7.605,10.246-15.234,15.328-22.879
	C654.914,1208.98,665.945,1191.996,676.855,1174.934z"/>
<path style="fill:#1F2A50;" d="M360.664,1651.273c-4.531-12.609-7.695-26.309-4.621-39.344c1.711-7.254,5.727-14,11.359-18.894
	c2.473-2.156,5.93-3.68,8.879-5.625c-0.711-5.633-2.84-9.817-7.551-9.945c-4.844-0.145-9.031,3.156-12.734,6.281
	c-8.129,6.844-16.637,14.25-19.82,24.383c-2.227,7.09-1.57,14.73-0.887,22.121c0.023,0.234,0.043,0.473,0.066,0.711
	c1.176,12.68,2.582,25.785,9.09,36.707c3.813,6.406,11.281,12.262,18.164,9.398c2.59-1.074,4.527-3.266,5.75-5.82
	C365.867,1664.574,363.063,1657.973,360.664,1651.273z"/>
<path style="fill:#1F2A50;" d="M266.488,1600.168c0.523-6.531-9.266-20.895-16.641-19.832l-0.332,0.059
	c0.125,1.855,1.535,4.105,1.813,5.789c0.461,2.863,0.238,5.844-0.375,8.66c-2.609,11.914-10.66,21.836-19.02,30.719
	c-5.699,6.059-11.734,11.965-16.742,18.563c7.699,0.742,18.094-6.859,22.684-10.945c5.184-4.621,9.801-9.809,14.355-15.031
	c2.434-2.793,5.848-5.867,8.773-9.008c1.895-2.035,3.59-4.102,4.672-6.145C266.156,1602.082,266.414,1601.137,266.488,1600.168z"/>
<path style="fill:#1F2A50;" d="M289.297,1622.758c-0.68-6.852-13.477-19.852-20.906-17.375c-2.594,0.867-4.293,3.18-5.699,5.598
	c-0.293,0.504-0.59,1.012-0.863,1.512c-0.324,0.609-0.656,1.207-0.98,1.809c0.625,0.891,1.473,1.789,2.566,2.711
	c1.664,1.399,3.551,2.535,5.039,4.113c4.418,4.711,4.262,12.043,3.148,18.402c-1.648,9.367-4.797,18.457-9.258,26.852
	c1.438-1.531,2.656-2.984,3.59-4.172c4.496-5.734,8.293-11.973,12.016-18.223c2.73-4.582,7.266-10.055,9.785-15.164
	c0.5-1.016,0.949-2.023,1.258-2.996C289.316,1624.781,289.406,1623.758,289.297,1622.758z"/>
<path style="fill:#1F2A50;" d="M313.742,1622.148l-0.672-0.359c-5.059-2.496-11.574-2.766-15.879,0.844
	c-2.328,1.938-3.738,4.742-5.051,7.484c-0.105,0.219-0.207,0.441-0.313,0.66c-0.281,0.605-0.574,1.207-0.852,1.816
	c1.105,0.871,2.367,1.633,3.5,2.457c3.43,2.504,5.855,6.078,7.191,10.082c1.73,5.184-1.129,9.883-2.871,14.82
	c-4.527,12.777-8.484,25.813-13.02,38.516c0.984-0.238,1.934-0.656,2.789-1.297c5.535-4.164,10.07-14.359,13.801-20.172
	c8.086-12.598,15.48-25.648,22.137-39.047c0.574-1.156,0.758-2.43,0.598-3.664c-0.152-1.168-0.613-2.297-1.398-3.238
	C320.813,1627.574,317.676,1624.297,313.742,1622.148z"/>
<path style="fill:#EBF2E5;" d="M1431.047,949.215c18.719,2.934,37.293,8.215,53.559,17.926c9.383,5.605,17.918,12.824,24.797,21.297
	c1.672-1.441,3.355-2.926,4.781-4.574c1.656-1.914,3.223-3.926,4.648-6.027c4.422-6.496,7.547-13.836,8.086-21.777
	c0.996-14.531-6.77-28.555-17.387-38.527c-7.418-6.973-16.156-12.258-25.191-17.039c-0.363,4.109-1.086,8.148-2.703,11.926
	c-4.184,9.766-13.395,16.277-22.16,22.277c-4.004,2.734-8.5,5.598-13.309,4.977c-3.801-0.5-5.633-3.473-6.258-7.617
	c-0.285-1.848-0.273-3.965-0.148-6.156c-6.105,6.887-11.691,14.238-17.09,21.688c-0.277,0.383-0.582,0.754-0.863,1.133
	C1424.887,948.492,1428.109,948.754,1431.047,949.215z"/>
<path style="fill:#C6CAD6;" d="M1558.234,952.625c-6.988-0.606-12.879-15.852-11.004-21.719c0.199-0.621,0.477-1.223,0.859-1.777
	l0.488-0.633c1.223-1.406,2.871-2.73,4.684-4c-0.305-0.394-0.609-0.785-0.918-1.172c-1.27,1.543-2.738,2.867-4.641,3.328
	c-7.16,1.746-18.133-11.441-18.234-17.906c-0.02-0.957,0.141-1.902,0.531-2.852l0.094-0.215c0.199-0.473,0.461-0.949,0.715-1.43
	c-0.535-0.352-1.086-0.652-1.621-0.992c-0.609,1.41-1.352,2.75-2.391,3.883c-3.543,3.906-9.641,4.504-14.676,2.824l-0.672-0.238
	c-3.941-1.504-7.289-4.145-10.422-7.016c-1.754-1.59-2.391-4.078-1.645-6.32c0.305-0.902,0.652-1.789,0.961-2.691
	c-3.223-0.106-6.508-0.012-9.953,0.555c-1.938,0.316-3.855,0.734-5.746,1.234c-0.051,1.676-0.156,3.34-0.305,5.004
	c9.035,4.781,17.773,10.066,25.191,17.039c10.617,9.973,18.383,23.996,17.387,38.527c-0.539,7.941-3.664,15.281-8.086,21.777
	c-1.426,2.102-2.992,4.113-4.648,6.027c-1.426,1.648-3.109,3.133-4.781,4.574c5.039,6.203,9.215,13.063,12.07,20.543
	c2.004,5.266,3.23,10.84,3.813,16.469c0.152-0.191,0.301-0.383,0.457-0.578c4.453-5.488,8.492-11.301,12.195-17.316
	c7.477-12.121,13.594-25.027,19.203-38.102c1.625-3.793,3.207-7.605,4.773-11.426c1.074-2.609,1.672-4.859,1.824-7.18
	C1562.039,951.953,1560.211,952.793,1558.234,952.625z"/>
<path style="fill:#A1A8C3;" d="M1509.402,988.438c-6.879-8.473-15.414-15.691-24.797-21.297
	c-16.266-9.711-34.84-14.992-53.559-17.926c-2.938-0.461-6.16-0.723-9.238-0.496c-1.543,2.063-3.152,4.078-4.781,6.082
	c15.781,0.152,31.43,7.137,44.691,16.176c7.105,4.84,13.789,10.277,20.004,16.219c5.785,4.824,11.156,10.125,16.191,15.734
	c0.707,0.785,1.48,1.512,2.168,2.313c6.395,7.426,12.164,15.816,16.133,24.789c0.449,1.02,0.793,2.07,1.195,3.102
	c0.195,0.5,0.387,1,0.57,1.504c2.422-3.063,4.836-6.129,7.305-9.188c-0.582-5.629-1.809-11.203-3.813-16.469
	C1518.617,1001.5,1514.441,994.641,1509.402,988.438z"/>
<path style="fill:#203A73;" d="M1439.91,932.055c1.094-1.207,2.293-2.355,3.355-3.465c10.301-10.73,17.41-23.398,21.355-37.758
	c4.355-15.93,5.023-32.598,4.676-49.144c-2.227-0.965-4.625-1.246-7.055-0.508c-4.063,1.231-6.887,5.102-8.035,9.18
	c-2.941,10.438-0.961,21.977-3.59,32.539c-1.477,5.945-3.414,11.871-5.285,17.719c-1.418,4.422-5.023,15.883-5.57,25.281
	C1439.637,928.09,1439.625,930.207,1439.91,932.055z"/>
<path style="fill:#203A73;" d="M1528.738,868.273c2.203-5.492,6.992-24.965,7.016-32.504c-3.449-1.789-7.805-1.879-10.531,0.828
	c-4.613,4.586-7.527,14.676-10.254,20.574c-3.758,8.152-7.246,16.43-10.434,24.82c4.719-0.414,9.996,0.516,14.391-1.355
	C1523.902,878.527,1526.719,873.293,1528.738,868.273z"/>
<path style="fill:#203A73;" d="M1548.715,898.859c7.578-4.07,14.637-8.883,19.398-16.012c4.449-6.656,8.91-13.317,13.371-19.977
	c-0.422-0.375-0.895-0.723-1.422-1.035c-7.918-4.738-20.664,6.422-25.613,11.773c-4.66,5.016-8.711,10.566-12.684,16.133
	c-3.145,4.398-8.34,9.598-10.957,14.508c-0.254,0.481-0.516,0.957-0.715,1.43C1536.578,904.336,1542.867,902,1548.715,898.859z"/>
<path style="fill:#203A73;" d="M1548.578,928.496l-0.488,0.633c2.918,2.699,6.945,4.328,10.949,4.66
	c6.164,0.5,12.258-1.578,17.848-4.219c6.762-3.203,13.082-7.297,18.789-12.125c3.703-3.125,7.691-9.481,11.996-12.852l-0.488-0.633
	c-5.711-6.691-20.605-0.492-26.711,2.824c-5.73,3.125-11.078,6.898-16.355,10.711c-3.078,2.223-7.301,4.5-10.855,7
	C1551.449,925.766,1549.801,927.09,1548.578,928.496z"/>
<path style="fill:#EBF2E5;" d="M1273.469,1122.324c25.863,0.031,48.906,10.508,66.605,27.582c9.078,2.238,18.496,3.098,27.816,2.445
	c17.266-1.211,26.703-8.652,39.723-19.273c12.332-10.066,24.141-20.813,35.023-32.441c25.848-27.617,46.629-61.148,55.277-97.707
	c-5.035-5.609-10.406-10.91-16.191-15.734c-6.215-5.941-12.898-11.379-20.004-16.219c-13.262-9.039-28.91-16.023-44.691-16.176
	c-3.566-0.039-7.133,0.16-10.691,0.895c-19.734,4.07-118.945,112.309-154.301,151.125c-8.039,8.828-15.984,17.781-20.852,27.918
	C1242.898,1125.965,1261.813,1122.309,1273.469,1122.324z"/>
<path style="fill:#C6CAD6;" d="M1500.082,1005.242c-0.688-0.801-1.461-1.527-2.168-2.313c-8.648,36.559-29.43,70.09-55.277,97.707
	c-10.883,11.629-22.691,22.375-35.023,32.441c-13.02,10.621-22.457,18.063-39.723,19.273c-9.32,0.652-18.738-0.207-27.816-2.445
	c6.754,6.508,12.75,13.945,17.797,22.172c9.398,15.32,15.406,32.633,16.801,50.387c0.609,7.852-0.297,16.109-2.68,23.727
	c2.898-2.527,5.688-5.273,8.406-8.148c2.754-10.813,2.449-21.773-1.012-32.672l0.324-1.211
	c28.793-25.992,54.188-55.836,77.949-86.426c21.594-27.797,41.051-57.18,58.555-87.703
	C1512.246,1021.059,1506.477,1012.668,1500.082,1005.242z"/>
<path style="fill:#C6CAD6;" d="M1446.949,1135.125c-15.207,18.613-30.844,36.918-47.797,53.973
	c-3.828,3.852-7.723,7.633-11.688,11.34c-2.07,1.938-4.711,3.547-4.91,6.664c-0.141,2.152,1.34,5.473,1.668,7.672
	c0.996,6.641,0.695,13.238-0.527,19.707c1.672-1.852,3.328-3.73,4.977-5.609c34.598-39.492,130.992-150.242,132.82-170.316
	c0.742-8.195-0.719-16.23-3.512-23.918c-0.184-0.504-0.375-1.004-0.57-1.504C1496.707,1068.973,1473.148,1103.051,1446.949,1135.125
	z"/>
<path style="fill:#A1A8C3;" d="M1374.672,1222.465c-1.395-17.754-7.402-35.066-16.801-50.387
	c-5.047-8.227-11.043-15.664-17.797-22.172c-17.699-17.074-40.742-27.551-66.605-27.582c-11.656-0.016-30.57,3.641-42.285,12.414
	c-3.145,6.551-4.977,13.602-4.715,21.438c2.594,1.695,5.207,3.41,7.816,5.129c7.762-8.461,16.125-16.574,25.875-22.715
	c2.676-1.688,5.609-4.469,8.996-4.488c7.676-0.043,15.535,1.809,23.305,4.906c10.727,4.281,21.238,11.031,30.762,18.965
	c13.711,11.426,25.363,25.199,32.516,37.309c5.027,8.52,9.176,18.109,8.395,27.973c-0.293,3.797-12.031,17.551-29.316,35.785
	c2.141,0.645,4.047,0.992,5.625,0.941c12.656-0.41,22.664-6.047,31.551-13.789
	C1374.375,1238.574,1375.281,1230.316,1374.672,1222.465z"/>
<path style="fill:#1F2A50;" d="M1384.223,1214.773c-0.328-2.199-1.809-5.52-1.668-7.672c0.199-3.117,2.84-4.727,4.91-6.664
	c3.965-3.707,7.859-7.488,11.688-11.34c16.953-17.055,32.59-35.359,47.797-53.973c26.199-32.074,49.758-66.152,70.461-101.992
	c-0.402-1.031-0.746-2.082-1.195-3.102c-17.504,30.523-36.961,59.906-58.555,87.703c-23.762,30.59-49.156,60.434-77.949,86.426
	l-0.324,1.211c3.461,10.898,3.766,21.859,1.012,32.672c1.105-1.172,2.207-2.355,3.297-3.563
	C1384.918,1228.012,1385.219,1221.414,1384.223,1214.773z"/>
<path style="fill:#203A73;" d="M1135.277,1121.066c-3.098,4-6.199,8.453-6.313,13.516c-0.121,5.465,3.254,10.32,6.543,14.688
	c15.668,20.828,32.707,40.621,50.977,59.219c14.758,15.027,29.406,20.305,50.305,23.789c8.875,1.484,17.902-2.133,26.461-7.867
	c12.328-8.262,23.691-20.918,32.219-29.047c5.063-4.816,10.121-9.984,12.59-16.52c4.422-11.676-0.652-25.238-9.297-34.25
	c-1.957-2.039-4.078-3.875-6.301-5.586c-7.77-3.098-15.629-4.949-23.305-4.906c-3.387,0.02-6.32,2.801-8.996,4.488
	c-9.75,6.141-18.113,14.254-25.875,22.715c-2.609-1.719-5.223-3.434-7.816-5.129c-13.164-8.617-25.988-16.867-37.648-24.234
	c-17.438-11.012-32.234-20.02-41.453-25.152C1143.164,1111.395,1139.109,1116.137,1135.277,1121.066z"/>
<path style="fill:#20325F;" d="M1308.059,1178.844c-2.469,6.535-7.527,11.703-12.59,16.52c-8.527,8.129-19.891,20.785-32.219,29.047
	c-8.559,5.734-17.586,9.352-26.461,7.867c-20.898-3.484-35.547-8.762-50.305-23.789c-18.27-18.598-35.309-38.391-50.977-59.219
	c-3.289-4.367-6.664-9.223-6.543-14.688c0.113-5.063,3.215-9.516,6.313-13.516c3.832-4.93,7.887-9.672,12.09-14.277
	c-2.371-1.328-4.379-2.395-5.965-3.172c-0.23-0.113-0.449-0.238-0.68-0.352c-15.871,15.832-32.816,36.926-28.703,57.965
	c1.73,8.836,6.566,16.691,11.66,24.148l0.902,1.32c21.883,31.742,48.047,66.219,77.66,90.93
	c11.824,9.848,25.297,19.445,40.68,19.844c15.434,0.402,29.402-8.535,42.043-17.41c13.48-9.465,26.496-19.953,37.348-32.422
	c17.734-20.402,15.578-41.32,8.152-66.5c-2.281-7.762-4.727-15.477-7.242-23.168c-9.523-7.934-20.035-14.684-30.762-18.965
	c2.223,1.711,4.344,3.547,6.301,5.586C1307.406,1153.605,1312.48,1167.168,1308.059,1178.844z"/>
<path style="fill:#1F2A50;" d="M1364.133,1223.254c0.781-9.863-3.367-19.453-8.395-27.973
	c-7.152-12.109-18.805-25.883-32.516-37.309c2.516,7.691,4.961,15.406,7.242,23.168c7.426,25.18,9.582,46.098-8.152,66.5
	c-10.852,12.469-23.867,22.957-37.348,32.422c-12.641,8.875-26.609,17.813-42.043,17.41c-15.383-0.398-28.855-9.996-40.68-19.844
	c-29.613-24.711-55.777-59.188-77.66-90.93l-0.902-1.32c-5.094-7.457-9.93-15.313-11.66-24.148
	c-4.113-21.039,12.832-42.133,28.703-57.965c-0.285-0.141-0.566-0.297-0.859-0.445c-15.883,7.445-30.961,18.461-42.133,31.055
	c-9.383,10.578-17.172,22.785-23.266,35.52c-3.145,6.586-5.762,13.43-8.164,20.371c16.191,14.664,32.504,29.195,48.98,43.531
	l10.148,8.609l76.348,64.754c6.594,6.293,13.934,11.375,20.957,14.285c30.73,12.73,59.746-8.965,80.57-29.715
	c11.516-11.477,22.289-22.461,31.512-32.191C1352.102,1240.805,1363.84,1227.051,1364.133,1223.254z"/>
<path style="fill:#203A73;" d="M1022.691,1828.121c3.137,10.922,6.477,21.789,8.984,32.84c0.723,3.184,2.055,6.594,3.203,10.063
	c2.566-0.129,5.297-0.32,8.137-0.563c16.789-1.445,36.992-5.168,44.883-15.656c2.379-3.164,3.551-12.25,3.836-24.684
	c0.926-40.383-7.648-116.484-15.836-142.887c-2.902-9.375-6.219-21.473-10.617-33.602c-8.852,13.734-19.945,25.859-28.91,39.508
	C1008.57,1735.484,1009.227,1781.281,1022.691,1828.121z"/>
<path style="fill:#20325F;" d="M1018.785,1706.207c-4.836,6.027-9.668,11.816-13.918,17.844
	c-6.828,9.695-12.164,19.992-13.656,32.867c-2.02,17.539,5.82,37.367,9.84,54.332c4.785,20.266,10.383,40.34,16.695,60.184
	c2.816,0.047,5.594,0.023,8.25-0.051c2.555-0.074,5.594-0.188,8.883-0.359c-1.148-3.469-2.48-6.879-3.203-10.063
	c-2.508-11.051-5.848-21.918-8.984-32.84c-13.465-46.84-14.121-92.637,13.68-134.98c8.965-13.648,20.059-25.773,28.91-39.508
	c-0.941-2.594-1.934-5.184-2.98-7.754c-1.598,3.059-3.504,6.223-5.707,9.664C1045.227,1673.324,1031.988,1689.789,1018.785,1706.207
	z"/>
<path style="fill:#1F2A50;" d="M932.465,1741.316c12.027,22.965,26.914,54.625,45.242,98.773
	c3.488,8.402,7.059,17.109,10.797,26.445c8.785,3.645,19.328,4.746,29.242,4.898c-6.313-19.844-11.91-39.918-16.695-60.184
	c-4.02-16.965-11.859-36.793-9.84-54.332c1.492-12.875,6.828-23.172,13.656-32.867c4.25-6.027,9.082-11.816,13.918-17.844
	c13.203-16.418,26.441-32.883,37.809-50.664c2.203-3.441,4.109-6.605,5.707-9.664c-1.91-4.695-4.031-9.273-6.367-13.637
	C1034.27,1687.297,987.246,1725.523,932.465,1741.316z"/>
<path style="fill:#203A73;" d="M672.055,1864.152c15.07,5.949,36.355,6.887,48.144,7.23c1.023,0.027,2.078,0.039,3.129,0.051
	c3.297-32.18,6.594-64.359,9.895-96.543c1.363-13.289,2.715-26.855-0.133-39.906c-6.441-29.531-31.426-49.566-47.125-74.008
	c-1.695-2.641-3.383-5.25-4.875-7.844c-4.492,12.293-7.852,24.594-10.797,34.102c-8.254,26.633-16.91,103.836-15.809,143.934
	c0.328,11.898,1.504,20.563,3.813,23.637C661.34,1858.844,666.25,1861.859,672.055,1864.152z"/>
<path style="fill:#20325F;" d="M733.09,1734.984c2.848,13.051,1.496,26.617,0.133,39.906c-3.301,32.184-6.598,64.363-9.895,96.543
	c7.297,0.102,15.172-0.211,22.637-1.586c0.684-2.977,1.785-5.93,2.867-8.77c7.438-19.531,13.57-39.758,15.453-60.578
	c1.887-20.824-0.656-42.383-9.852-61.156c-4.449-9.086-16.184-24.406-26.402-40.808c-5.891-9.457-11.223-19.254-14.422-28.434
	c-8.746-12.195-16.086-25.621-21.594-40.25c-0.063-0.164-0.113-0.348-0.176-0.512c-4.23,7.379-7.746,15.578-10.75,23.793
	c1.492,2.594,3.18,5.203,4.875,7.844C701.664,1685.418,726.648,1705.453,733.09,1734.984z"/>
<path style="fill:#1F2A50;" d="M713.609,1670.102c3.199,9.18,8.531,18.977,14.422,28.434c10.219,16.402,21.953,31.723,26.402,40.808
	c9.195,18.773,11.738,40.332,9.852,61.156c-1.883,20.82-8.016,41.047-15.453,60.578c-1.082,2.84-2.184,5.793-2.867,8.77
	c4.094-0.754,8.07-1.801,11.727-3.313c3.949-9.867,7.723-19.055,11.391-27.879c18.25-43.871,33.066-75.297,45.035-98.074
	C773.926,1728.465,738.078,1704.238,713.609,1670.102z"/>
<path style="fill:#C6CAD6;" d="M737.996,1553.285c-12.859-10.277-33.723-27.793-41.25-46.484
	c-25.336,32.594-18.266,86.746-4.906,122.539c0.063,0.164,0.113,0.348,0.176,0.512c5.508,14.629,12.848,28.055,21.594,40.25
	c24.469,34.137,60.316,58.363,100.508,70.48c18.949,5.715,38.844,8.781,58.969,8.875h1.398h1.395
	c19.281-0.09,38.355-2.883,56.586-8.141c54.781-15.793,101.805-54.02,123.469-109.074c0.32-0.809,0.707-1.57,1.016-2.391
	c8.363-22.195,14.289-51.598,11.559-78.547c-38.465,31.184-85.637,51.715-134.832,57.637
	C864.547,1617.262,792.398,1596.746,737.996,1553.285z"/>
<path style="fill:#A1A8C3;" d="M1020.746,1520.363c-3.543,6.063-7.629,11.852-12.313,17.25
	c-52.16,60.055-136.883,68.02-209.156,41.703c-30.125-10.961-60.738-34.719-77.207-63.934c-4.652-4.133-8.891-8.734-12.601-13.891
	c-1.09-1.512-1.988-3.129-2.965-4.699c-1.09,0.906-2.227,1.754-3.266,2.738c-2.387,2.27-4.512,4.723-6.492,7.27
	c7.527,18.691,28.391,36.207,41.25,46.484c54.402,43.461,126.551,63.976,195.68,55.656c49.195-5.922,96.367-26.453,134.832-57.637
	c-2.012-19.891-8.727-38.457-22.781-51.773c-1.039-0.984-2.172-1.832-3.266-2.738c-0.977,1.57-1.871,3.188-2.961,4.699
	C1034.215,1508.84,1027.84,1515.039,1020.746,1520.363z"/>
<path style="fill:#1F2A50;" d="M799.277,1579.316c72.273,26.316,156.996,18.352,209.156-41.703
	c4.684-5.398,8.77-11.188,12.313-17.25c-19.719,14.801-45.191,22.68-69.688,28.285c-25.313,5.789-50.922,8.113-76.574,6.918
	c-25.652,1.195-51.262-1.129-76.57-6.918c-27.129-6.203-55.473-15.176-75.844-33.266
	C738.539,1544.598,769.152,1568.355,799.277,1579.316z"/>
<path style="fill:#EBF2E5;" d="M1081.578,1004.281c-3.559-1.375-7.16-2.625-10.73-3.949c-46.547,24.945-98.27,40.277-150.961,43.906
	c-52.996,3.652-106.676-4.473-156.422-23.012c-13.797-5.145-43.996-15.938-57.933-30.531c-12.809,4.258-25.551,8.719-38.145,13.586
	c-19.672,7.609-39.652,16.492-57.324,28.055c36.199,7.797,69.492,28.598,99.578,50.113c35.574,25.441,70.145,54.383,111.461,70.137
	c43.555,16.602,89.094,12.988,130.762-7.203c63.27-30.66,118.746-95.129,188.293-112.191
	C1122.176,1021.215,1101.723,1012.07,1081.578,1004.281z"/>
<path style="fill:#EBF2E5;" d="M1143.559,1035.512c-37.57,8.926-71.82,31.805-102.961,54.426
	c-34.297,24.906-68.324,52.191-108.738,66.547c-40.02,14.215-81.996,11.625-120.734-5.313
	c-40.043-17.512-73.766-46.289-109.254-71.184c-28.684-20.121-60.402-38.875-94.699-45.676
	c-16.242,11.07-30.375,24.52-40.211,41.566c-2.578,4.469-4.789,9.516-5.91,14.613c-0.008,0.043-0.027,0.09-0.035,0.133
	c6.098-1.746,29.027,5.066,32.941,6.281c0.387,0.117,0.77,0.281,1.152,0.402c19.953,6.414,39.977,19.258,54.309,34.664
	c16.039,8.273,30.832,19.215,43.75,31.824c21.426,20.91,29.434,46.316,47.879,68.91c32.785,40.172,82.254,56.898,132.793,55.047
	c29.844-1.09,59.375-8.93,85.98-22.473c28.684-14.598,45.586-30.715,63.309-56.508c24.797-36.07,44.047-77.832,73.859-110.379
	c18.629-20.328,44.047-36.617,70.578-42.09C1160.453,1048.516,1152.336,1041.648,1143.559,1035.512z"/>
<path style="fill:#C6CAD6;" d="M1055.609,1230.758c2.598-13.848,6.078-27.656,10.691-40.992c2.402-6.941,5.02-13.785,8.164-20.371
	c6.094-12.734,13.883-24.941,23.266-35.52c11.172-12.594,26.25-23.609,42.133-31.055c5.004-2.34,10.082-4.352,15.145-5.914
	c3.918-1.215,26.852-8.027,32.941-6.281c-0.004-0.043-0.02-0.09-0.031-0.133c-1.121-5.098-3.336-10.145-5.914-14.613
	c-4.105-7.125-8.988-13.609-14.438-19.574c-26.531,5.473-51.949,21.762-70.578,42.09c-29.813,32.547-49.063,74.309-73.859,110.379
	c-17.723,25.793-34.625,41.91-63.309,56.508c-26.605,13.543-56.137,21.383-85.98,22.473
	c-50.539,1.852-100.008-14.875-132.793-55.047c-18.445-22.594-26.453-48-47.879-68.91c-12.918-12.609-27.711-23.551-43.75-31.824
	c0.594,0.641,1.242,1.254,1.816,1.902c9.383,10.578,17.172,22.785,23.266,35.52c0.863,1.809,1.555,3.699,2.355,5.539
	c7.762,17.73,12.93,36.75,16.5,55.824c3.848,20.547,5.645,41.762,5.563,63.063c-0.129,35.574-5.481,71.406-15.207,104.836
	c1.113,8.543,2.184,17.094,3.211,25.633c3.023,25.066,6.371,51.238,19.582,72.504c0.977,1.57,1.875,3.188,2.965,4.699
	c3.711,5.156,7.949,9.758,12.601,13.891c20.371,18.09,48.715,27.063,75.844,33.266c25.309,5.789,50.918,8.113,76.57,6.918
	c25.652,1.195,51.262-1.129,76.574-6.918c24.496-5.605,49.969-13.484,69.688-28.285c7.094-5.324,13.469-11.523,18.754-18.871
	c1.09-1.512,1.984-3.129,2.961-4.699c13.211-21.266,16.563-47.438,19.586-72.504c1.027-8.539,2.098-17.09,3.215-25.633
	c-9.73-33.43-15.086-69.262-15.215-104.836C1049.973,1272.52,1051.766,1251.305,1055.609,1230.758z"/>
<path style="fill:#A1A8C3;" d="M763.465,1021.227c49.746,18.539,103.426,26.664,156.422,23.012
	c52.691-3.629,104.414-18.961,150.961-43.906c-13.156-4.887-26.398-9.519-39.781-13.734
	c-79.981,35.031-170.547,44.344-256.027,19.086c-18.32-5.41-36.199-12.223-53.547-20.195c-5.348,1.656-10.648,3.441-15.961,5.207
	C719.469,1005.289,749.668,1016.082,763.465,1021.227z"/>
<path style="fill:#1F2A50;" d="M811.125,1151.172c38.738,16.938,80.715,19.527,120.734,5.313
	c40.414-14.355,74.441-41.641,108.738-66.547c31.141-22.621,65.391-45.5,102.961-54.426c-1.121-0.785-2.262-1.559-3.402-2.32
	c-69.547,17.063-125.023,81.531-188.293,112.191c-41.668,20.191-87.207,23.805-130.762,7.203
	c-41.316-15.754-75.887-44.695-111.461-70.137c-30.086-21.516-63.379-42.316-99.578-50.113c-0.981,0.645-1.926,1.316-2.891,1.977
	c34.297,6.801,66.016,25.555,94.699,45.676C737.359,1104.883,771.082,1133.66,811.125,1151.172z"/>
<path style="fill:#EBF2E5;" d="M963.625,262.012c-41.016-19.973-96.598-17.297-138.156-11.066
	c-22.523,3.375-43.969,14.031-60.023,30.223c-8.129,8.203-13.988,17.039-18.246,26.395c-31.328,8.57-61.113,20.324-88.172,35.301
	c-73.172,40.504-127.519,104.219-155.566,175.258c-11.855,30.031-18.461,61.34-20.41,92.981
	c16.699,15.609,34.426,30.078,52.981,43.398c1.379-10.184,3.527-20.293,6.477-30.277c1.289-12.027,5.707-23.363,10.496-34.684
	c10.801-25.547,25.66-49.344,43.617-70.473c31.203-36.707,76.074-70.555,124.027-83.738c0.656-0.18,1.316-0.309,1.969-0.477
	c-3.016-11.41-4.715-23.152-4.746-34.992c-0.063-28.418,9.055-56.453,24.73-80.086c-0.891,2.938-1.66,5.922-2.32,8.945
	c1.816-7.043,3.969-13.992,6.68-20.73c-2.637,11.172-4.828,22.367-6.375,33.648c-1.496,11.281-2.586,22.605-3.004,33.965
	c-0.512,11.352-0.34,22.727,0.262,34.09c0.621,10.746,1.875,21.465,3.519,32.18c0.16,0.918,0.344,1.832,0.512,2.746
	c1.262,6.898,2.816,13.703,4.711,20.352c20.094,15.688,47.895,22.102,73.801,19.918c55.598-4.676,105.133-44.082,128.754-94.625
	C967.672,350.609,971.313,305.293,963.625,262.012z"/>
<path style="fill:#EBF2E5;" d="M1252.906,518.121c-28.043-71.039-82.387-134.754-155.563-175.258
	c-27.09-14.992-56.879-26.742-88.176-35.309c0.101,0.23,0.207,0.461,0.309,0.691c0.25,0.281,0.504,0.555,0.754,0.836
	c-0.082-0.363-0.145-0.73-0.238-1.094c0.195,0.469,0.344,0.949,0.523,1.418c32.531,37.414,53.441,84.695,60.207,133.832
	c33.781,18.984,63.824,44.652,87.609,75.25c14.281,18.367,26.238,38.492,35.734,59.727c3.629,6.336,6.949,12.773,9.906,19.293
	c4.363,9.59,7.875,19.359,10.648,29.238c19.25-16.367,37.375-34.027,54.199-52.852
	C1265.344,554.977,1260.094,536.316,1252.906,518.121z"/>
<path style="fill:#C6CAD6;" d="M1268.82,573.894c-16.824,18.824-34.949,36.484-54.199,52.852
	c14.281,50.824,8.023,104.77-14.453,154.613c-17.441,59.438-63.371,107.391-115.531,141.109
	c-93.82,60.652-214.332,81.676-320.879,48.074c-81.328-25.656-152.273-84.414-191.859-159.34
	c-29.578-48.977-43.051-103.785-35.867-156.703c-18.555-13.32-36.281-27.789-52.981-43.398
	c-7.316,118.512,51.422,241.781,151.176,320.762c26.809,21.227,56.168,39.34,87.266,53.625
	c17.348,7.973,35.227,14.785,53.547,20.195c85.48,25.258,176.047,15.945,256.027-19.086c32.445-14.215,63.164-32.637,91.074-54.734
	C1232.391,844.566,1292.59,703.172,1268.82,573.894z"/>
<path style="fill:#C6CAD6;" d="M687.648,465.145c16.941-8.148,35.215-14.887,54.227-20.527c-0.168-0.914-0.352-1.828-0.512-2.746
	c0.098,0.621,0.156,1.238,0.254,1.855c-3.469-10.957-5.617-22.316-6.941-33.758c-1.375-11.449-1.656-23.016-1.242-34.535
	c0.516-11.52,1.738-23.02,4.004-34.324c0.816-4.16,1.789-8.285,2.844-12.391c0.66-3.023,1.43-6.008,2.32-8.945
	c-15.676,23.633-24.793,51.668-24.73,80.086c0.031,11.84,1.73,23.582,4.746,34.992c-0.652,0.168-1.313,0.297-1.969,0.477
	c-47.953,13.184-92.824,47.031-124.027,83.738c-17.957,21.129-32.816,44.926-43.617,70.473c-4.789,11.32-9.207,22.656-10.496,34.684
	c2.66-9.016,5.902-17.942,9.887-26.715C576.777,543.852,624.031,495.73,687.648,465.145z"/>
<path style="fill:#A1A8C3;" d="M1090.281,909.996c-84.082,57.836-197.309,82.563-301.773,55.754
	c-44.469-11.41-86.105-30.777-122.422-55.754c-15.019-10.328-28.922-21.691-41.691-33.832
	c-20.801-19.781-38.457-41.707-52.496-64.961c39.586,74.926,110.531,133.684,191.859,159.34
	c106.547,33.601,227.059,12.578,320.879-48.074c52.16-33.719,98.09-81.672,115.531-141.109
	C1177.973,830.574,1140.008,875.789,1090.281,909.996z"/>
<path style="fill:#20325F;" d="M1176.293,608.254c-14.785-44.813-45.008-91.688-91.824-97.574
	c-43.508-5.477-81.734,26.273-122.59,42.172c-42.402,16.5-93.574,14.375-136.262-4.383c-4.344-1.34-8.609-2.891-12.785-4.648
	c-12.09-5.102-23.383-12.027-33.293-21.059c-16.398-14.941-26.594-35.414-32.953-57.793c-1.894-6.648-3.449-13.453-4.711-20.352
	c-19.012,5.641-37.285,12.379-54.227,20.527c-63.617,30.586-110.871,78.707-135.254,132.363c-3.984,8.773-7.226,17.699-9.887,26.715
	c-2.949,9.984-5.098,20.094-6.477,30.277c-7.184,52.918,6.289,107.727,35.867,156.703c14.039,23.254,31.695,45.18,52.496,64.961
	c37.711,22.598,78.887,39.656,121.258,49.121c90.98,20.316,198.82,9.93,284.777-26.348
	c53.035-22.383,101.563-59.398,132.328-108.547C1197.832,734.367,1196.578,669.742,1176.293,608.254z"/>
<path style="fill:#1F2A50;" d="M1194.066,578.215c-26.215-45.797-69.461-86.199-125.348-113.07
	c-16.953-8.156-35.223-14.895-54.227-20.531c-5.504,30.113-16.391,58.77-37.664,78.148c-26.648,24.281-63.254,33.394-98.644,32.527
	c-17.684,0.434-35.672-1.629-52.566-6.82c42.688,18.758,93.859,20.883,136.262,4.383c40.856-15.898,79.082-47.649,122.59-42.172
	c46.816,5.887,77.039,52.762,91.824,97.574c20.285,61.488,21.539,126.113-13.535,182.137
	c-30.766,49.148-79.293,86.164-132.328,108.547c-85.957,36.277-193.797,46.664-284.777,26.348
	c-42.371-9.465-83.547-26.523-121.258-49.121c12.77,12.141,26.672,23.504,41.691,33.832c36.316,24.977,77.953,44.344,122.422,55.754
	c104.465,26.809,217.691,2.082,301.773-55.754c49.727-34.207,87.691-79.422,109.887-128.637
	c22.477-49.844,28.734-103.789,14.453-154.613c-2.773-9.879-6.285-19.648-10.648-29.238
	C1201.016,590.988,1197.695,584.551,1194.066,578.215z"/>
<path style="fill:#203A73;" d="M1146.113,591.035c-1.395-1.91-2.938-3.934-4.621-6.027c-16.285-20.289-45.254-47.227-70.48-44.813
	c-30.41,2.902-63.738,32.902-91.25,45.801c-34.996,16.41-72.355,28.934-111.281,30.297c-43.723,1.531-87.406-11.227-125.098-33.441
	c-15.105-8.906-29.93-19.539-47.238-22.332c-25.418-4.101-50.332,9.645-70.25,25.957c-16.016,13.113-30.613,28.516-39.746,47.094
	c-20.496,41.695,2.727,82.172,37.379,113.215c-5.891-20.551-4.957-43.117,3.863-62.633c37.809-83.598,160.523-64.469,172.332,25.539
	c4.84,36.887-15.68,75.758-48.863,92.574c-4.129,2.094-8.422,3.82-12.82,5.203c93.813,28.359,195.434,31.809,289.527,2.992
	c0.594-0.184,1.242-0.379,1.852-0.563c-17.109-3.184-33.348-10.934-45.938-22.98c-26.883-25.715-35.246-68.863-19.918-102.766
	c37.805-83.598,160.52-64.469,172.332,25.539c2.832,21.594-3.074,43.832-15.07,61.965c4.516-3.441,8.563-7.094,11.805-11.043
	c14.832-18.07,22.977-54.91,27.41-77.418C1165.98,653.063,1164.727,616.602,1146.113,591.035z"/>
<path style="fill:#3EC0F0;" d="M799.723,709.691c-11.809-90.008-134.523-109.137-172.332-25.539
	c-8.82,19.516-9.754,42.082-3.863,62.633c4.344,15.156,12.375,29.223,23.781,40.133c23.539,22.516,59.797,30.258,90.73,20.551
	c4.398-1.383,8.691-3.109,12.82-5.203C784.043,785.449,804.563,746.578,799.723,709.691z"/>
<path style="fill:#3EC0F0;" d="M1135.895,709.691c-11.813-90.008-134.527-109.137-172.332-25.539
	c-15.328,33.902-6.965,77.051,19.918,102.766c12.59,12.047,28.828,19.797,45.938,22.98c19.422,3.609,39.965,1.305,57.613-7.633
	c13.758-6.973,25.293-17.77,33.793-30.609C1132.82,753.523,1138.727,731.285,1135.895,709.691z"/>
<path style="fill:#203A73;" d="M733.434,375.434c-0.414,11.52-0.133,23.086,1.242,34.535c1.324,11.441,3.473,22.801,6.941,33.758
	c-0.098-0.617-0.156-1.234-0.254-1.855c-1.644-10.715-2.898-21.434-3.519-32.18c-0.602-11.363-0.774-22.738-0.262-34.09
	c0.418-11.359,1.508-22.684,3.004-33.965c1.547-11.281,3.738-22.477,6.375-33.648c-2.711,6.738-4.863,13.688-6.68,20.73
	c-1.055,4.105-2.027,8.23-2.844,12.391C735.172,352.414,733.949,363.914,733.434,375.434z"/>
<path style="fill:#203A73;" d="M1010.231,309.082c0.129,0.547,0.223,1.09,0.348,1.633c7.211,17.523,9.035,36.828,9.219,57.324
	c0.066,7.141,0.023,14.676-0.172,22.418c-0.023,6.41-0.176,12.824-0.512,19.234c-0.652,11.367-1.98,22.699-3.777,34.035
	c3.469-10.957,5.621-22.316,6.941-33.758c1.375-11.449,1.66-23.016,1.246-34.535c-0.519-11.52-1.734-23.02-4-34.324
	c-2.129-10.805-5.012-21.469-9.008-31.703c-0.18-0.469-0.328-0.949-0.523-1.418C1010.086,308.352,1010.148,308.719,1010.231,309.082
	z"/>
<path style="fill:#203A73;" d="M1134.449,2149.918c-15.988,3.539-30.887,11.41-43.168,22.199c-2.449,2.148-6.57,7.219-11.063,13.359
	c-0.543,0.734-1.078,1.461-1.621,2.223c21.898,2.527,43.922,4.047,65.898,2.371c22.668-1.723,41.289-12.355,61.605-18.223
	c-1.656-1.527-3.359-3.008-5.094-4.453c-2.094-1.742-4.234-3.438-6.434-5.047C1175.668,2148.578,1157.773,2144.77,1134.449,2149.918
	z"/>
<path style="fill:#203A73;" d="M641.66,2180.195c3.273-2.801,6.969-8.098,10.945-13.785c-10.73-7.84-22.98-13.621-35.977-16.492
	c-4.047-0.895-7.883-1.418-11.641-1.766c-17.879-1.66-32.855,2.816-48.477,14.195c-2.207,1.609-4.344,3.305-6.441,5.051
	c-12.887,10.727-23.672,23.988-31.395,38.867c-0.18,0.352-0.273,0.652-0.434,0.988
	C561.078,2213.52,610.242,2207.094,641.66,2180.195z"/>
<path style="fill:#1F2A50;" d="M659.797,2172.117c-2.297-2.02-4.715-3.898-7.191-5.707c-3.977,5.688-7.672,10.984-10.945,13.785
	c-31.418,26.898-80.582,33.324-123.418,27.059c-8.078,17.191,14.117,16.703,26.246,18.547c16.82,2.551,33.781,4.172,50.781,4.859
	c25.199,1.023,89.738-3.281,96.762-6.016c0.219-0.082,0.387-0.168,0.492-0.254C696.414,2221.301,668.266,2179.551,659.797,2172.117z
	"/>
<path style="fill:#1F2A50;" d="M1232.402,2206.266c-6.684-12.883-15.656-24.551-26.301-34.418
	c-20.316,5.867-38.938,16.5-61.605,18.223c-21.977,1.676-44,0.156-65.898-2.371c-8.555,11.926-17.918,26.91-19.965,33.492
	c-0.508,1.633-0.598,2.785-0.074,3.199c0.102,0.086,0.273,0.172,0.496,0.254c0.313,0.129,0.785,0.254,1.328,0.383
	c11.484,2.73,71.363,6.609,95.43,5.633c17-0.688,33.961-2.309,50.777-4.859C1218.957,2223.918,1241.875,2224.512,1232.402,2206.266z
	"/>
<path style="fill:#C6CAD6;" d="M949.141,390.262c-23.621,50.543-73.156,89.949-128.754,94.625
	c-25.906,2.184-53.707-4.23-73.801-19.918c6.359,22.379,16.555,42.852,32.953,57.793c9.91,9.031,21.203,15.957,33.293,21.059
	c47.508-17.684,91.02-45.586,124.063-83.797c28.875-33.398,48.832-74.793,56.254-118.363c3.207-18.875,3.289-37.254,1.918-56.031
	c-1.316-1.508-2.691-2.996-4.144-4.461c-7.906-7.977-17.176-14.227-27.297-19.156C971.313,305.293,967.672,350.609,949.141,390.262z
	"/>
<path style="fill:#A1A8C3;" d="M1158.332,518.488c-23.785-30.598-53.828-56.266-87.609-75.25
	c-6.766-49.137-27.676-96.418-60.207-133.832c3.996,10.234,6.879,20.898,9.008,31.703c2.266,11.305,3.481,22.805,4,34.324
	c0.414,11.52,0.129,23.086-1.246,34.535c-1.32,11.441-3.473,22.801-6.941,33.758c1.797-11.336,3.125-22.668,3.777-34.035
	c0.336-6.41,0.488-12.824,0.512-19.234c0.195-7.742,0.238-15.277,0.172-22.418c-0.184-20.496-2.008-39.801-9.219-57.324
	c-0.125-0.543-0.219-1.086-0.348-1.633c-0.25-0.281-0.504-0.555-0.754-0.836c-0.102-0.23-0.207-0.461-0.309-0.691
	c-3.5-7.68-8.066-15.012-14.102-21.926c1.371,18.777,1.289,37.156-1.918,56.031c-7.422,43.57-27.379,84.965-56.254,118.363
	c-33.043,38.211-76.555,66.113-124.063,83.797c4.176,1.758,8.441,3.309,12.785,4.648c16.894,5.192,34.883,7.254,52.566,6.82
	c35.391,0.867,71.996-8.246,98.644-32.527c21.273-19.379,32.16-48.035,37.664-78.148c19.004,5.637,37.273,12.375,54.227,20.531
	c55.887,26.871,99.133,67.274,125.348,113.07C1184.57,556.981,1172.613,536.856,1158.332,518.488z"/>
<path style="fill:#1F2A50;" d="M1464.621,890.832c-3.945,14.359-11.055,27.027-21.355,37.758c-1.063,1.109-2.262,2.258-3.355,3.465
	c0.625,4.145,2.457,7.117,6.258,7.617c4.809,0.621,9.305-2.242,13.309-4.977c8.766-6,17.977-12.512,22.16-22.277
	c1.617-3.777,2.34-7.816,2.703-11.926c0.148-1.664,0.254-3.328,0.305-5.004c0.055-1.668,0.074-3.332,0.086-4.988
	c0.113-12.953,0.121-26.414-5.363-38.148c-2.078-4.453-5.758-8.832-10.07-10.664
	C1469.645,858.234,1468.977,874.902,1464.621,890.832z"/>
<path style="fill:#1F2A50;" d="M1501.027,902.711c3.133,2.871,6.48,5.512,10.422,7.016l0.672,0.238
	c5.035,1.68,11.133,1.082,14.676-2.824c1.039-1.133,1.781-2.473,2.391-3.883c0.523-1.215,0.957-2.481,1.355-3.742
	c4.402-13.887,7.641-28.152,9.676-42.586c0.816-5.797,3.016-12.852-0.727-18.019c-0.949-1.305-2.258-2.375-3.738-3.141
	c-0.023,7.539-4.813,27.012-7.016,32.504c-2.02,5.02-4.836,10.254-9.813,12.363c-4.395,1.871-9.672,0.941-14.391,1.355
	c-1.473,3.879-2.84,7.789-4.191,11.707c-0.309,0.902-0.656,1.789-0.961,2.691C1498.637,898.633,1499.273,901.121,1501.027,902.711z"
	/>
<path style="fill:#1F2A50;" d="M1568.113,882.848c-4.762,7.129-11.82,11.941-19.398,16.012c-5.848,3.141-12.137,5.477-18.621,6.82
	l-0.094,0.215c-0.391,0.949-0.551,1.895-0.531,2.852c0.102,6.465,11.074,19.652,18.234,17.906c1.902-0.461,3.371-1.785,4.641-3.328
	c0.738-0.902,1.434-1.859,2.059-2.82c7.277-11.145,14.559-22.277,21.836-33.418c3.664-5.609,12.184-18.105,5.246-24.215
	C1577.023,869.531,1572.563,876.191,1568.113,882.848z"/>
<path style="fill:#1F2A50;" d="M1607.672,904.594c-4.305,3.371-8.293,9.727-11.996,12.852c-5.707,4.828-12.027,8.922-18.789,12.125
	c-5.59,2.641-11.684,4.719-17.848,4.219c-4.004-0.332-8.031-1.961-10.949-4.66c-0.383,0.555-0.66,1.156-0.859,1.777
	c-1.875,5.867,4.016,21.113,11.004,21.719c1.977,0.168,3.805-0.672,5.504-1.777c0.836-0.547,1.656-1.133,2.426-1.738
	c9.961-7.844,19.922-15.676,29.887-23.523C1601.227,921.516,1613.289,912.394,1607.672,904.594z"/>
</svg>
